<?xml version="1.0" standalone="no"?>
<!DOCTYPE svg PUBLIC "-//W3C//DTD SVG 20010904//EN"
 "http://www.w3.org/TR/2001/REC-SVG-20010904/DTD/svg10.dtd">
<svg version="1.0" xmlns="http://www.w3.org/2000/svg"
 width="640.000000pt" height="640.000000pt" viewBox="0 0 640.000000 640.000000"
 preserveAspectRatio="xMidYMid meet">
<metadata>
Created by potrace 1.16, written by Peter Selinger 2001-2019
</metadata>
<g transform="translate(0.000000,640.000000) scale(0.100000,-0.100000)"
fill="#000000" stroke="none">
<path d="M0 3200 l0 -3200 3200 0 3200 0 0 3200 0 3200 -3200 0 -3200 0 0
-3200z m2172 946 c12 -16 73 -93 133 -171 367 -474 447 -575 455 -575 5 0 18
16 30 35 12 20 27 41 34 48 28 30 101 122 191 242 54 72 101 132 105 135 3 3
19 23 36 45 30 41 132 172 186 238 l30 37 218 0 c121 0 221 -4 224 -9 6 -9
-1041 -1411 -1054 -1411 -5 0 -30 28 -55 63 -26 34 -51 61 -56 60 -5 -2 -6 4
-3 12 4 8 2 15 -4 15 -6 0 -24 23 -41 50 -17 28 -35 50 -40 50 -6 0 -17 15
-26 34 -9 18 -25 43 -36 55 -11 11 -16 21 -12 21 4 0 1 6 -7 13 -8 7 -28 31
-43 55 -16 25 -32 40 -39 36 -7 -4 -8 -3 -4 4 8 13 -138 215 -148 204 -4 -4
-7 -2 -6 3 5 21 0 36 -10 30 -5 -3 -10 1 -10 9 0 9 -4 16 -10 16 -5 0 -10 7
-10 16 0 9 -5 12 -12 8 -6 -4 -8 -3 -4 4 3 6 -8 28 -26 48 -18 21 -32 40 -32
43 1 3 -5 15 -12 26 -12 16 -14 -85 -16 -690 l-3 -710 -195 -5 c-107 -3 -198
-3 -202 0 -8 6 -12 1785 -4 1875 4 36 3 50 -2 35 l-8 -25 -6 27 c-3 15 -2 25
3 23 4 -3 11 0 14 6 5 7 76 10 230 7 l223 -3 24 -29z m2069 20 c238 -34 372
-125 430 -293 27 -80 26 -231 -2 -316 -35 -106 -77 -161 -164 -216 l-43 -27
60 -29 c145 -71 228 -242 228 -470 0 -286 -138 -473 -412 -557 -73 -23 -74
-23 -921 -26 -630 -2 -847 0 -842 9 14 22 228 304 248 326 l20 22 651 3 651 3
51 27 c60 31 110 88 124 138 13 45 13 135 0 181 -15 52 -72 113 -132 140 -53
24 -54 24 -477 27 -234 1 -427 4 -429 7 -2 2 55 82 127 179 l130 174 308 5
c351 5 373 9 441 73 l44 43 -4 62 c-4 58 -7 65 -46 99 -55 49 -113 60 -314 60
-103 0 -158 4 -158 10 0 6 59 89 132 185 151 200 124 186 299 161z"/>
</g>
</svg>
