<?xml version="1.0" standalone="no"?>
<!DOCTYPE svg PUBLIC "-//W3C//DTD SVG 20010904//EN"
 "http://www.w3.org/TR/2001/REC-SVG-20010904/DTD/svg10.dtd">
<svg version="1.0" xmlns="http://www.w3.org/2000/svg"
 width="309.000000pt" height="208.000000pt" viewBox="0 0 309.000000 208.000000"
 preserveAspectRatio="xMidYMid meet">
<metadata>
Created by potrace 1.16, written by Peter Selinger 2001-2019
</metadata>
<g transform="translate(0.000000,208.000000) scale(0.100000,-0.100000)"
fill="#000000" stroke="none">
<path d="M0 1040 l0 -1040 1545 0 1545 0 0 205 c0 113 -2 205 -4 205 -2 0 -16
-20 -30 -43 -60 -104 -196 -196 -351 -239 -79 -22 -88 -22 -902 -26 -600 -2
-823 0 -823 8 0 6 57 86 126 178 l126 167 651 5 652 5 60 30 c76 38 113 88
124 171 19 129 -21 223 -119 278 l-55 31 -432 3 c-238 1 -433 6 -433 10 0 5
57 84 128 178 l127 169 315 5 c314 5 315 5 371 31 73 35 99 71 99 141 0 67
-25 110 -82 140 -40 21 -57 23 -235 26 -131 2 -193 7 -193 14 0 6 57 88 128
181 l127 170 95 -6 c248 -16 400 -97 477 -255 37 -76 38 -78 37 -197 0 -101
-4 -129 -23 -178 -30 -77 -94 -154 -161 -194 -43 -26 -50 -34 -34 -38 79 -25
156 -87 205 -165 l29 -45 0 558 0 557 -1545 0 -1545 0 0 -1040z m566 963 c16
-20 152 -194 302 -387 150 -193 276 -352 281 -354 4 -1 21 14 37 35 15 21 151
197 301 391 l274 352 219 0 c121 0 220 -3 220 -7 -1 -18 -1037 -1388 -1050
-1388 -8 0 -32 26 -55 57 -22 31 -166 230 -320 441 l-280 384 -3 -700 c-1
-504 -5 -704 -13 -714 -9 -11 -50 -13 -198 -11 l-186 3 -3 955 c-1 525 0 961
3 968 3 9 57 12 223 12 l218 0 30 -37z"/>
</g>
</svg>
